# xmcd
#
# Track frame offsets:
# 165
# 19326
# 37061
# 52118
# 68570
# 86038
# 96834
# 114177
# 128536
# 144196
# 160904
# 178643
#
# Disc length: 2593 seconds
#
#
# Revision: 1
# Processed by: cddbd v1.5.1PL2 Copyright (c) Steve Scherf et al.
# Submitted via: FreeRIP 2.945 
#
DISCID=9a0a1f0c
DTITLE=Juliano Cezar - Juliano Cezar
DYEAR=1900
DGENRE=Country
TTITLE0=Deixa a estrada me levar
TTITLE1=Bem aos olhos da lua
TTITLE2=Bota, cinturão e blue jeans
TTITLE3=Rumo a Goiânia
TTITLE4=Cowboy de coracão
TTITLE5=Peão apaixonado
TTITLE6=Sem teu amor
TTITLE7=Chove lá fora
TTITLE8=Cowboy universitário
TTITLE9=A mil por hora
TTITLE10=Ainda existem cowboys
TTITLE11=Tô vivendo
EXTD=Música Sertaneja Brasileira\nGravadora Paradoxx Music
EXTT0=
EXTT1=
EXTT2=
EXTT3=
EXTT4=
EXTT5=
EXTT6=
EXTT7=
EXTT8=
EXTT9=
EXTT10=
EXTT11=
PLAYORDER=
